<?xml version="1.0" standalone="no"?>
<!DOCTYPE svg PUBLIC "-//W3C//DTD SVG 20010904//EN"
 "http://www.w3.org/TR/2001/REC-SVG-20010904/DTD/svg10.dtd">
<svg version="1.0" xmlns="http://www.w3.org/2000/svg"
 width="240.000000pt" height="240.000000pt" viewBox="0 0 240.000000 240.000000"
 preserveAspectRatio="xMidYMid meet">
<metadata>
Created by potrace 1.11, written by Peter Selinger 2001-2013
</metadata>
<g transform="translate(0.000000,240.000000) scale(0.100000,-0.100000)"
fill="#000000" stroke="none">
<path d="M1479 2396 c-2 -2 -24 -7 -48 -11 -179 -27 -401 -170 -512 -331 -60
-88 -108 -199 -135 -319 -4 -16 -9 -240 -11 -498 l-4 -467 356 0 355 0 -4 -22
c-3 -13 -10 -46 -15 -74 -39 -199 -179 -376 -366 -461 -101 -46 -167 -61 -278
-61 -258 0 -479 136 -597 368 -66 129 -84 315 -46 460 56 211 229 392 436 460
l65 21 1 75 c0 88 2 87 -114 48 -139 -46 -239 -111 -345 -223 -297 -315 -287
-809 23 -1121 162 -164 366 -244 600 -235 115 4 152 9 220 32 269 91 468 301
542 571 20 72 21 107 25 549 l5 472 -324 0 c-178 0 -337 0 -354 1 l-31 0 8 48
c13 84 30 135 71 215 139 268 443 407 739 336 75 -18 179 -63 217 -94 9 -8 34
-28 56 -44 52 -42 131 -141 167 -212 66 -132 85 -334 44 -469 -10 -30 -17 -56
-16 -58 3 -7 -58 -113 -90 -157 -86 -116 -220 -210 -346 -244 -45 -12 -45 -12
-45 -91 0 -83 -2 -79 40 -68 313 83 523 290 608 598 26 92 25 310 -1 400 -79
278 -275 484 -545 571 -80 26 -114 32 -221 35 -69 2 -127 2 -130 0z m-2 -1196
l0 -276 -274 -1 c-150 0 -274 3 -274 6 -3 12 -6 536 -3 541 1 4 126 6 277 6
l274 0 0 -276z"/>
</g>
</svg>
